<svg width="21" height="26" viewBox="0 0 21 26" fill="none" xmlns="http://www.w3.org/2000/svg">
<path id="Vector" d="M7.01036 18.5846C6.67792 18.5846 6.40661 18.2936 6.40661 17.9355C6.40661 17.5775 6.67601 17.2865 7.01036 17.2865H10.9271C11.2595 17.2865 11.5308 17.5775 11.5308 17.9355C11.5308 18.2936 11.2614 18.5846 10.9271 18.5846H7.01036ZM7.01036 9.49439C6.67792 9.49439 6.40852 9.20752 6.40852 8.85352C6.40852 8.49951 6.67792 8.21265 7.01036 8.21265H14.9603C15.2927 8.21265 15.5621 8.49951 15.5621 8.85352C15.5621 9.20752 15.2927 9.49439 14.9603 9.49439H7.01036ZM13.7031 23.0015C13.4433 22.7817 13.3994 22.3789 13.6076 22.1022C13.814 21.8255 14.1922 21.7787 14.4521 22.0005L16.2805 23.5447L19.7597 19.0138C19.9699 18.7392 20.3501 18.7005 20.6061 18.9243C20.864 19.1481 20.9003 19.553 20.6901 19.8256L16.8365 24.8447C16.6282 25.1153 16.2557 25.158 15.9977 24.9403L13.7031 23.0015ZM11.846 24.6128C12.1785 24.6128 12.4479 24.8997 12.4479 25.2537C12.4479 25.6077 12.1785 25.8945 11.846 25.8945H2.38483C1.9989 25.8945 1.64926 25.7277 1.39515 25.4571C1.14104 25.1865 0.984375 24.8142 0.984375 24.4032V2.38582C0.984375 1.97485 1.14104 1.60254 1.39515 1.33195C1.64926 1.06136 1.9989 0.894531 2.38483 0.894531H19.5839C19.9699 0.894531 20.3195 1.06136 20.5736 1.33195C20.8277 1.60254 20.9844 1.97485 20.9844 2.38582V15.665C20.9844 16.019 20.715 16.3059 20.3825 16.3059C20.0501 16.3059 19.7807 16.019 19.7807 15.665V2.38582C19.7807 2.32886 19.7578 2.27596 19.7234 2.2373C19.6871 2.19865 19.6374 2.17627 19.5839 2.17627H2.38483C2.33134 2.17627 2.28166 2.20068 2.24536 2.2373C2.21097 2.27799 2.18804 2.32886 2.18804 2.38582V24.4012C2.18804 24.4582 2.21097 24.5111 2.24536 24.5497C2.28166 24.5884 2.33134 24.6108 2.38483 24.6108H11.846V24.6128ZM7.01036 14.0354C6.67792 14.0354 6.40852 13.7485 6.40852 13.3945C6.40852 13.0405 6.67792 12.7537 7.01036 12.7537H14.9603C15.2927 12.7537 15.5621 13.0405 15.5621 13.3945C15.5621 13.7485 15.2927 14.0354 14.9603 14.0354H7.01036Z" fill="#FF9700"/>
</svg>
