<svg width="18" height="20" viewBox="0 0 18 20" fill="none" xmlns="http://www.w3.org/2000/svg">
<path id="Vector" d="M0.809954 1.47425H6.35315V1.00909V1.00697C6.35315 0.991512 6.35348 0.976701 6.35547 0.961565C6.36794 0.702457 6.48213 0.467274 6.65732 0.296542L6.65615 0.295403C6.83965 0.11572 7.09445 0.00406891 7.37502 0.00146481L7.37885 0.00179032V0H7.384H10.689H10.6916C10.7092 0 10.726 0.00146481 10.743 0.00358064C11.0061 0.0172522 11.2448 0.127276 11.4185 0.29817C11.6016 0.477853 11.7153 0.727033 11.7182 1.00046L11.7177 1.00388H11.72V1.00909V1.47409H17.1899H17.1927C17.2156 1.47409 17.2372 1.47636 17.2594 1.47962C17.4558 1.49687 17.634 1.58134 17.7636 1.70911L17.7643 1.71024L17.7651 1.70911C17.9066 1.84859 17.9955 2.04243 17.998 2.25727L17.9977 2.26248H18V2.26769V4.03017C18 4.26975 17.8014 4.46392 17.5567 4.46392H17.5451H0.443289C0.198624 4.46376 0 4.26959 0 4.03017V4.01992V2.26769V2.26541C0 2.24815 0.00066485 2.23107 0.00299183 2.21414V2.21072C0.0177848 2.01427 0.106709 1.83573 0.239346 1.7065L0.238183 1.70618C0.381458 1.56604 0.580082 1.47897 0.799483 1.47604L0.804802 1.47636V1.47425H0.809954ZM12.9297 7.99085H11.9415V17.1203H12.9297V7.99085ZM9.71679 7.99085H8.72816V17.1203H9.71679V7.99085ZM6.5039 7.99085H5.5156V17.1203H6.5039V7.99085ZM1.80125 5.13806H16.3257L16.3721 5.14099L16.3932 5.14213L16.4155 5.14392H16.417L16.4441 5.14766C16.6706 5.17419 16.8826 5.27608 17.0378 5.42565C17.2107 5.59247 17.3212 5.81871 17.3212 6.07082C17.3212 6.08677 17.3197 6.10223 17.318 6.11736L17.3177 6.12843L17.3154 6.1535L16.0866 19.0658L16.0854 19.0728H16.0866L16.0839 19.0954L16.0754 19.1415L16.0748 19.1452C16.0656 19.1991 16.0548 19.2503 16.04 19.2962L16.0389 19.2998L16.037 19.3036L16.0332 19.3137L16.0325 19.3171C16.0129 19.3747 15.9887 19.4307 15.9607 19.4813C15.793 19.7873 15.4822 20 15.0958 20H3.01344L2.97238 19.9977H2.97055L2.96523 19.9971C2.88878 19.9933 2.81747 19.9823 2.75115 19.9642C2.68217 19.9453 2.61519 19.9176 2.5522 19.8836L2.5507 19.8833C2.25401 19.7243 2.05588 19.4146 2.02347 19.0663L0.811118 6.15057L0.809289 6.13022L0.807461 6.09002L0.806796 6.07114C0.806796 5.81838 0.91633 5.59166 1.08969 5.42484C1.25191 5.2694 1.4753 5.16459 1.71399 5.14392L1.73426 5.14327V5.14213L1.78413 5.14001L1.80141 5.14034L1.80125 5.13806ZM16.3259 6.0062H1.80125V6.00506L1.78197 6.00571C1.75487 6.00929 1.72845 6.02296 1.70916 6.04184C1.69869 6.0521 1.69188 6.06333 1.69188 6.07098H1.69072L1.69188 6.09018L2.90224 18.9877V18.9896C2.90756 19.0508 2.93581 19.1021 2.97654 19.1239L2.99017 19.1297L3.00064 19.1317H3.01344H15.0963C15.1307 19.1317 15.1626 19.1061 15.1824 19.0703L15.1963 19.0383L15.2053 19.0031L15.2076 18.9807L16.4358 6.08872L16.4353 6.07082C16.4353 6.06349 16.4285 6.05275 16.4182 6.04282C16.3982 6.02362 16.3706 6.00994 16.3432 6.00588L16.3259 6.0062ZM6.79594 2.3419H0.886246V3.5961H17.1136V2.3419H11.287H11.2765C11.0319 2.3419 10.8337 2.1479 10.8337 1.90832V1.00909V1.00388H10.8349C10.8337 0.968075 10.8173 0.933408 10.7919 0.908669C10.7691 0.885721 10.738 0.871398 10.7053 0.867655H10.6916H10.689H7.384H7.37885C7.34344 0.868794 7.3087 0.883605 7.28311 0.908832H7.28128C7.2595 0.930641 7.24288 0.959775 7.23823 0.990373L7.23939 1.00697V1.00909V1.90816C7.23923 2.14773 7.0406 2.3419 6.79594 2.3419Z" fill="#E8B100"/>
</svg>
