<svg width="15" height="20" viewBox="0 0 15 20" fill="none" xmlns="http://www.w3.org/2000/svg">
<path id="Vector" d="M3.1466 9.55145H4.79151C4.85525 9.38905 4.91729 9.22626 4.97423 9.06191L4.25142 8.0032L4.79449 8.19136L4.5544 7.573L4.91687 7.69011C4.62621 6.52599 5.07239 5.66169 5.77268 4.90045C5.59081 5.89865 5.52919 6.77935 5.66645 7.46642C5.62863 5.4704 6.29152 3.06956 8.82453 1.94526C8.61674 2.52615 8.47141 3.13592 8.44464 3.79918C9.33488 1.55956 9.44323 0.829942 11.4787 0.0222434L10.8204 1.42176C10.9891 1.15942 11.202 0.946276 11.3465 0.720245C12.068 -0.41108 14.6189 -0.160065 14.9576 1.12624C15.0094 1.32416 15.012 1.52404 14.975 1.7247C14.508 3.59657 12.7322 4.45814 9.86646 4.47962C10.3245 4.72868 11.822 4.66739 13.4087 4.23407C12.2414 5.16591 11.3473 6.18519 9.70117 6.83869C9.93615 6.92106 10.3734 6.9316 10.7541 6.95151C9.804 7.70221 8.3962 8.15779 6.65186 8.36313C6.87197 8.56886 7.4894 8.45292 8.13912 8.61024L6.46022 8.98774L6.95484 9.16926L5.7952 9.06386C6.32169 7.96923 6.90682 6.92379 7.60201 5.97048C9.3064 3.63249 11.5543 1.98937 14.502 1.13054C14.2254 1.12975 13.9569 1.1602 13.6947 1.2133C12.7352 1.40771 11.7 1.97025 10.8973 2.47306C9.39012 3.41739 8.24918 4.54871 7.23019 5.93964C6.29322 7.21892 5.72891 8.30301 5.27593 9.55145H7.23232C7.42651 9.55145 7.60371 9.62484 7.73246 9.74273L7.73458 9.74469C7.86249 9.86297 7.94195 10.0254 7.94195 10.2034V11.6263C7.94195 11.8043 7.86206 11.9675 7.73331 12.0862L7.73373 12.0866C7.6326 12.1795 7.5013 12.2447 7.3547 12.2685V13.1203C7.49917 13.1664 7.66745 13.2163 7.84592 13.2687C8.7472 13.5337 9.88006 13.8675 10.2272 14.5038C10.3683 14.763 10.404 15.0351 10.3645 15.333C10.3292 15.6008 10.2328 15.8877 10.1006 16.2074L9.05612 18.846L9.04125 18.8769C8.88317 19.1728 8.6928 19.4164 8.46844 19.6018C8.23643 19.7939 7.96915 19.925 7.6649 19.9891C7.636 19.9961 7.60541 20 7.57439 20H2.80453C2.78074 19.9996 2.75652 19.9973 2.73187 19.9926C2.4204 19.9301 2.14717 19.7978 1.91005 19.6018C1.69037 19.4199 1.5034 19.1822 1.34702 18.8941C1.33767 18.8788 1.3296 18.8628 1.3228 18.846L0.278319 16.2074C0.14999 15.8967 0.0552306 15.6164 0.0178367 15.3521C-0.0238066 15.0578 0.0046638 14.79 0.132993 14.5366C0.467414 13.8769 1.62195 13.5368 2.53725 13.2675C2.71402 13.2156 2.88102 13.1664 3.02422 13.1203V12.2681C2.87847 12.2447 2.74717 12.1795 2.64646 12.087H2.64476C2.51643 11.9687 2.43697 11.8055 2.43697 11.6263V10.2034C2.43697 10.0238 2.51643 9.86063 2.64476 9.74273C2.77309 9.62484 2.95071 9.55145 3.1466 9.55145ZM3.96545 14.4773H6.41305V15.1109H3.96545V14.4773ZM1.58881 17.6694H8.79011L9.45683 15.9849C9.57071 15.7097 9.65272 15.4688 9.68077 15.2588C9.70457 15.0785 9.68757 14.9223 9.6132 14.7857C9.39649 14.3879 8.41575 14.0994 7.63558 13.8698C7.35385 13.7871 7.09549 13.711 6.8809 13.6301C6.74747 13.5806 6.66716 13.4627 6.66673 13.3381H6.66546V12.2779H3.71346V13.3381C3.71346 13.4826 3.6085 13.604 3.4653 13.6423C3.25794 13.7184 3.01318 13.7902 2.74717 13.8687C1.95977 14.1006 0.965858 14.3933 0.757642 14.804C0.688378 14.9407 0.674355 15.0949 0.699001 15.2705C0.728321 15.4759 0.809908 15.7136 0.92209 15.9849L1.58881 17.6694ZM8.5394 18.303H1.83952L1.96402 18.6177C2.08003 18.8304 2.21516 19.003 2.37068 19.1318C2.50921 19.2466 2.66643 19.3258 2.8432 19.3668H7.53572C7.71249 19.3258 7.86929 19.2466 8.00824 19.1318C8.16376 19.003 8.29889 18.8304 8.4149 18.6177L8.5394 18.303ZM7.23232 10.1846H3.1466C3.14108 10.1846 3.13598 10.187 3.13258 10.1905C3.12876 10.194 3.12621 10.1987 3.12621 10.2034V11.6263C3.12621 11.631 3.12876 11.6353 3.13258 11.6388C3.13556 11.6427 3.14066 11.6447 3.1466 11.6447H3.36884H7.01008H7.23232C7.23742 11.6447 7.24251 11.6423 7.24634 11.6388H7.24761C7.25059 11.6361 7.25271 11.6314 7.25271 11.6263V10.2034C7.25271 10.1979 7.25059 10.1932 7.24761 10.1905L7.24634 10.1893C7.24336 10.1866 7.23827 10.1846 7.23232 10.1846Z" fill="#FF9700"/>
</svg>
