<svg width="20" height="15" viewBox="0 0 20 15" fill="none" xmlns="http://www.w3.org/2000/svg">
<path id="Vector" fill-rule="evenodd" clip-rule="evenodd" d="M6.78005 8.52872C7.16413 8.90753 8.2643 8.98552 8.67442 9.24734C8.80462 9.3309 8.92343 9.43674 9.01945 9.57972C9.25543 9.93439 9.27333 10.3875 9.36284 10.8201C9.34169 11.0764 9.21474 11.2231 8.96574 11.2435H6.32924C6.33086 11.1748 6.33249 11.1079 6.33249 11.0411L5.95329 9.53701L6.13882 9.3049C6.19904 9.19906 6.22508 9.09693 6.20392 9.00037C6.14045 8.70884 5.88819 8.7534 5.68313 8.7534C5.48783 8.7534 5.27952 8.7107 5.17862 8.93909C5.13142 9.04494 5.15095 9.16564 5.23395 9.30676L5.41948 9.53887L5.04028 11.043C5.04842 11.1117 5.05655 11.1785 5.06469 11.2454H2.49654C2.24754 11.2231 2.1206 11.0764 2.09944 10.822C2.18895 10.3893 2.20685 9.93625 2.44284 9.58158C2.53886 9.4386 2.65603 9.33276 2.78786 9.2492C3.19147 8.99109 4.26235 8.91124 4.66271 8.54915C4.72292 8.39874 4.78477 8.18705 4.82383 8.05335C4.82545 8.04593 4.82057 8.0645 4.8401 7.99765C4.88404 7.84538 4.62039 7.54828 4.53251 7.38673L4.20376 6.79067C4.08333 6.58641 4.02148 6.39886 4.01823 6.2466C4.0166 6.17418 4.02636 6.10919 4.05078 6.05162C4.07519 5.9922 4.11262 5.94021 4.16307 5.90121C4.18748 5.88264 4.21352 5.86779 4.24282 5.85479C4.22166 5.53169 4.21352 5.12503 4.22654 4.78522C4.23305 4.70352 4.2477 4.62367 4.26723 4.54197C4.38766 4.05175 4.7571 3.69894 5.17699 3.53367C5.38205 3.45383 5.3023 3.26071 5.50899 3.27371C5.99886 3.30342 6.75401 3.66365 7.04533 4.04618C7.45219 4.58096 7.34804 5.24016 7.33339 5.89379C7.42453 5.92535 7.48311 5.99034 7.5059 6.09804C7.53194 6.21689 7.50427 6.38215 7.41639 6.60869C7.41476 6.6124 7.41313 6.61612 7.41151 6.62169L7.03719 7.32359C6.89234 7.5947 6.7475 7.86581 6.5522 8.07378C6.54244 8.08307 6.53267 8.09421 6.52291 8.10349C6.55057 8.14806 6.58475 8.20376 6.61893 8.26318C6.66938 8.35046 6.72471 8.4433 6.78005 8.52872ZM1.15876 0H18.8412C19.1602 0 19.4499 0.148552 19.6599 0.388091L19.6843 0.417801C19.8796 0.655484 20 0.973013 20 1.32025V13.6797C20 14.0418 19.8698 14.3724 19.6599 14.6119C19.4499 14.8514 19.1602 15 18.8412 15H1.15876C0.841403 15 0.551713 14.8514 0.341769 14.6119C0.130198 14.3761 0 14.0456 0 13.6816V1.32211C0 0.960015 0.130198 0.629487 0.340142 0.389948C0.550085 0.148552 0.839775 0 1.15876 0ZM11.088 10.8127C10.9285 10.8127 10.7999 10.6159 10.7999 10.3745C10.7999 10.1331 10.9285 9.93625 11.088 9.93625H17.5425C17.702 9.93625 17.8306 10.1331 17.8306 10.3745C17.8306 10.6159 17.702 10.8127 17.5425 10.8127H11.088ZM11.088 8.16663C10.9285 8.16663 10.7999 7.96979 10.7999 7.7284C10.7999 7.487 10.9285 7.29017 11.088 7.29017H17.2414C17.4009 7.29017 17.5295 7.487 17.5295 7.7284C17.5295 7.96979 17.4009 8.16663 17.2414 8.16663H11.088ZM11.088 5.52055C10.9285 5.52055 10.7999 5.32372 10.7999 5.08232C10.7999 4.84093 10.9285 4.64409 11.088 4.64409H15.2104C15.3698 4.64409 15.4984 4.84093 15.4984 5.08232C15.4984 5.32372 15.3698 5.52055 15.2104 5.52055H11.088ZM18.8396 0.876455H1.15876C1.05135 0.876455 0.955326 0.926591 0.883717 1.00644C0.813736 1.08628 0.769794 1.1977 0.769794 1.32025V13.6797C0.769794 13.8004 0.813736 13.9119 0.883717 13.9936C0.953698 14.0734 1.05135 14.1235 1.15876 14.1235H18.8412C18.947 14.1235 19.0447 14.0734 19.1163 13.9917C19.1863 13.9119 19.2302 13.8004 19.2302 13.6779V1.32211C19.2302 1.20698 19.1928 1.103 19.1309 1.02501L19.1163 1.00829C19.0447 0.928448 18.947 0.876455 18.8396 0.876455Z" fill="#4C4C6D"/>
</svg>
