<svg width="30" height="40" viewBox="0 0 30 40" fill="none" xmlns="http://www.w3.org/2000/svg">
<path id="Vector" fill-rule="evenodd" clip-rule="evenodd" d="M1.92177 15.4641H3.22316V12.4003C3.22316 9.00943 4.53908 5.91675 6.65908 3.6707C8.79731 1.40676 11.7482 0 14.9998 0C18.2505 0 21.2038 1.40527 23.3391 3.6707C25.4606 5.91675 26.7769 9.00794 26.7769 12.4003V15.4641H28.0782C29.135 15.4641 30 16.3429 30 17.4167V38.0474C30 39.1212 29.135 40 28.0782 40H1.92177C0.863539 40 8.66642e-07 39.1212 8.66642e-07 38.0474V17.4167C-0.000999133 16.3429 0.863539 15.4641 1.92177 15.4641ZM13.4225 29.0553L11.348 34.5725H18.6498L16.7293 28.9788C17.9487 28.3419 18.7822 27.0508 18.7822 25.562C18.7822 23.4387 17.0888 21.7193 14.9988 21.7193C12.9102 21.7193 11.2178 23.4387 11.2178 25.562C11.2166 27.1115 12.1207 28.4463 13.4225 29.0553ZM6.86054 15.4641H23.1376V12.4003C23.1376 9.98861 22.2127 7.80305 20.7241 6.22577C19.2512 4.66551 17.2248 3.6961 14.9988 3.6961C12.7738 3.6961 10.7459 4.66551 9.27408 6.22577C7.78408 7.80305 6.86054 9.98861 6.86054 12.4003V15.4641Z" fill="#FF9700"/>
</svg>
