<svg width="22" height="20" viewBox="0 0 22 20" fill="none" xmlns="http://www.w3.org/2000/svg">
<path id="Vector" d="M14.6364 13C14.6364 12.0529 11.7873 11.2857 8.27273 11.2857M14.6364 13C14.6364 13.9471 11.7873 14.7143 8.27273 14.7143C4.75818 14.7143 1.90909 13.9471 1.90909 13M14.6364 13V17.2317C14.6364 18.208 11.7873 19 8.27273 19C4.75818 19 1.90909 18.2089 1.90909 17.2317V13M14.6364 13C18.1127 13 21 12.154 21 11.2857V2.71429M8.27273 11.2857C4.75818 11.2857 1.90909 12.0529 1.90909 13M8.27273 11.2857C4.25636 11.2857 1 10.4397 1 9.57143V5.28571M8.27273 3.57143C4.25636 3.57143 1 4.33857 1 5.28571M1 5.28571C1 6.23286 4.25636 7 8.27273 7C8.27273 7.86829 11.23 8.71429 14.7064 8.71429C18.1818 8.71429 21 7.86829 21 7M21 2.71429C21 1.76714 18.1818 1 14.7064 1C11.23 1 8.41273 1.76714 8.41273 2.71429M21 2.71429C21 3.66143 18.1818 4.42857 14.7064 4.42857C11.2309 4.42857 8.41273 3.66143 8.41273 2.71429M8.41273 2.71429V11.428" stroke="#FF9700" stroke-width="2"/>
</svg>
