<svg width="20" height="20" viewBox="0 0 20 20" fill="none" xmlns="http://www.w3.org/2000/svg">
<path id="Vector" d="M9.99992 0C12.7614 0 15.2613 1.11929 17.071 2.92901C18.8807 4.73873 20 7.23871 20 10.0001C20 12.7615 18.8807 15.2614 17.071 17.0711C15.2613 18.8807 12.7614 20 9.99992 20C7.23859 20 4.73865 18.8807 2.92897 17.0711C1.11928 15.2616 0 12.7615 0 10.0001C0 7.23855 1.11928 4.73857 2.92897 2.92901C4.73865 1.11929 7.23859 0 9.99992 0ZM11.6171 6.8629C11.8996 6.57254 11.8929 6.10819 11.6027 5.8258C11.3125 5.54341 10.848 5.54976 10.5655 5.84012L7.01122 9.50546L7.53693 10.0168L7.00894 9.50481C6.72624 9.79647 6.7334 10.262 7.02506 10.5448C7.03352 10.553 7.04198 10.5609 7.05077 10.5686L10.5655 14.1626C10.848 14.453 11.3125 14.4594 11.6027 14.177C11.8929 13.8947 11.8996 13.4302 11.6171 13.1399L8.56066 10.0147L11.6171 6.8629ZM16.0309 3.96904C14.4876 2.4256 12.3552 1.47102 9.99992 1.47102C7.64467 1.47102 5.5124 2.4256 3.96898 3.96904C2.42556 5.51249 1.47099 7.64479 1.47099 10.0001C1.47099 12.3554 2.42556 14.4877 3.96914 16.0311C5.5124 17.5746 7.64467 18.5293 10.0001 18.5293C12.3555 18.5293 14.4878 17.5747 16.031 16.0311C17.5746 14.4878 18.5293 12.3554 18.5293 10.0001C18.5292 7.64479 17.5744 5.51249 16.0309 3.96904Z" fill="#FF9700"/>
</svg>
