<svg width="20" height="20" viewBox="0 0 20 20" fill="none" xmlns="http://www.w3.org/2000/svg">
<path id="Vector" d="M4.96777 10.6423L4.8504 14.016L3.55931 13.1502L2.26822 13.8679L2.53437 10.2517L0.70601 10.0044V17.5849L7.44085 18.3384V10.9125L4.96777 10.6423ZM16.1793 0.968897C16.2487 0.955878 16.3198 0.968897 16.3793 1.0047C16.4802 1.04539 16.5512 1.14303 16.5529 1.25858L16.6108 9.06859L19.5682 9.45103C19.6376 9.43801 19.7087 9.45103 19.7682 9.48684C19.8691 9.52752 19.9401 9.62517 19.9418 9.74072L19.9997 17.746C20.0046 17.8437 19.955 17.9413 19.8641 17.995L16.543 19.9447C16.4967 19.9788 16.4372 20 16.3744 20C16.3595 20 16.3429 19.9984 16.3297 19.9967L7.71196 19.0528C7.69047 19.0512 7.67064 19.048 7.6508 19.0431L0.266278 18.1089C0.117496 18.1024 0.000124322 17.9804 0.000124322 17.8339V9.69189C-0.00318193 9.58286 0.0596369 9.47707 0.16709 9.43151L4.05525 7.74712V2.15529C4.05194 2.04625 4.11476 1.94047 4.22221 1.8949L8.54514 0.0233635C8.58977 0.00383443 8.64102 -0.00430269 8.69392 0.00220701L16.1793 0.968897ZM16.3429 9.58937L13.7442 11.1159L16.3248 11.4397L18.7962 9.90671L16.3429 9.58937ZM4.05525 9.05557V8.34927L1.29783 9.54217L2.87987 9.74072L4.05525 9.05557ZM13.2648 3.55325V10.7562L15.7462 9.29806L16.0487 9.04581L15.9958 1.8591L13.2648 3.55325ZM12.554 10.9336V3.48327L9.02785 3.02108L8.90718 6.47936L7.61608 5.61357L6.32499 6.33126L6.59114 2.71512L4.614 2.46613V10.0467L12.554 10.9336ZM12.1225 1.00145L9.41138 2.51658L12.9375 2.95924L15.4089 1.4262L12.1225 1.00145ZM6.9383 2.20411L9.56677 0.669451L8.70053 0.557159L5.35626 2.00394L6.9383 2.20411ZM16.6521 12.0338V19.2367L19.4376 17.6012L19.383 10.3396L16.6521 12.0338ZM15.9412 19.4141V11.9638L12.4151 11.5016L12.2944 14.9599L11.0033 14.0941L9.71225 14.8118L9.9784 11.1956L8.15004 11.0199V18.6004L15.9412 19.4141Z" fill="#FF9700"/>
</svg>
