<svg width="50" height="50" viewBox="0 0 50 50" fill="none" xmlns="http://www.w3.org/2000/svg">
<g id="Group">
<path id="Vector" d="M24.9979 0C28.8754 0 32.5448 0.883452 35.8235 2.45923C34.4814 3.52107 33.2371 4.54043 32.0776 5.52158C29.8692 4.71882 27.4866 4.28135 25.0021 4.28135C19.2814 4.28135 14.1001 6.60041 10.3542 10.3508C6.60409 14.1013 4.28523 19.2788 4.28523 25C4.28523 30.7212 6.60409 35.8987 10.3542 39.6492C14.1043 43.3996 19.2814 45.7187 25.0021 45.7187C30.7228 45.7187 35.9042 43.3996 39.65 39.6492C43.4002 35.8987 45.719 30.7212 45.719 25C45.719 23.6408 45.5874 22.3072 45.3368 21.0202C46.4113 19.6186 47.5113 18.2212 48.6367 16.8366C49.5201 19.3935 50 22.1415 50 25C50 31.902 47.2012 38.1541 42.6782 42.6775C38.1551 47.201 31.9035 50 25.0021 50C18.1007 50 11.8491 47.201 7.32609 42.6775C2.79878 38.1541 0 31.902 0 25C0 18.098 2.79878 11.8459 7.32184 7.32246C11.8449 2.79901 18.0965 0 24.9979 0ZM13.3526 20.8928L19.4513 20.8121L19.9057 20.931C21.1373 21.6403 22.2968 22.4516 23.3798 23.369C24.1612 24.0316 24.9087 24.7537 25.6179 25.5352C27.8051 22.0141 30.1368 18.7819 32.6 15.8087C35.2969 12.551 38.1593 9.5948 41.1662 6.89772L41.7608 6.66837H48.4159L47.0738 8.15919C42.95 12.7421 39.2084 17.4779 35.8277 22.3624C32.4471 27.2511 29.4233 32.297 26.7349 37.4915L25.8982 39.1055L25.1295 37.4618C23.711 34.4164 22.0122 31.6216 19.9864 29.1242C17.9606 26.6267 15.6035 24.4096 12.8557 22.5238L13.3526 20.8928Z" fill="#01A601"/>
</g>
</svg>
