<svg width="18" height="15" viewBox="0 0 18 15" fill="none" xmlns="http://www.w3.org/2000/svg">
<path id="Vector" fill-rule="evenodd" clip-rule="evenodd" d="M13.8311 3.77875L11.1973 3.75857V1.31742C11.1973 0.95427 11.0903 0.62542 10.916 0.387357C10.7432 0.147276 10.5044 0 10.2407 0H2.93994C2.67627 0 2.4375 0.147276 2.26465 0.387357C2.0918 0.62542 1.9834 0.95427 1.9834 1.31742C1.9834 1.51513 2.09912 1.67451 2.24268 1.67451C2.38623 1.67451 2.50195 1.51513 2.50195 1.31742C2.50195 1.15198 2.55176 1.00067 2.63086 0.891728C2.70996 0.782784 2.81982 0.71419 2.93994 0.71419H10.2407C10.3608 0.71419 10.4707 0.782784 10.5498 0.891728C10.6289 1.00067 10.6787 1.15198 10.6787 1.31742V12.4963H9.2168C9.07324 12.4963 8.95752 12.6557 8.95752 12.8534C8.95752 13.0511 9.07324 13.2105 9.2168 13.2105H10.938C11.0815 13.2105 11.1973 13.0511 11.1973 12.8534V12.4479H12.7617C12.8804 8.73168 16.7549 8.21923 17.1489 12.4479H18L17.7378 8.57028L14.9443 7.09751L13.8311 3.77875ZM0.388184 7.57364C0.172852 7.57364 0 7.41224 0 7.21453C0 7.01681 0.174316 6.85541 0.388184 6.85541H3.8877C4.10303 6.85541 4.27588 7.01681 4.27588 7.21453C4.27588 7.41224 4.10156 7.57364 3.8877 7.57364H0.388184ZM1.18945 5.64089C1.02832 5.64089 0.897949 5.48151 0.897949 5.28379C0.897949 5.08608 1.02832 4.9267 1.18945 4.9267H3.88916C4.05029 4.9267 4.18066 5.08608 4.18066 5.28379C4.18066 5.48151 4.05029 5.64089 3.88916 5.64089H1.18945ZM1.56006 3.70814C1.39893 3.70814 1.26855 3.54876 1.26855 3.35104C1.26855 3.15333 1.39893 2.99395 1.56006 2.99395H3.8877C4.04883 2.99395 4.1792 3.15333 4.1792 3.35104C4.1792 3.54876 4.04883 3.70814 3.8877 3.70814H1.56006ZM3.87598 12.4943C4.01953 12.4943 4.13525 12.6537 4.13525 12.8514C4.13525 13.0491 4.01953 13.2085 3.87598 13.2085H2.93994C2.67773 13.2085 2.43896 13.0511 2.26465 12.803C2.0918 12.5548 1.9834 12.2159 1.9834 11.8568V9.23403C1.9834 9.03631 2.09912 8.87693 2.24268 8.87693C2.38623 8.87693 2.50195 9.03631 2.50195 9.23403V11.8568C2.50195 12.0282 2.55322 12.1917 2.63672 12.3107C2.71582 12.4237 2.82275 12.4963 2.93848 12.4963H3.87598V12.4943ZM6.5127 10.1621C5.54297 10.1621 4.75635 11.2455 4.75635 12.581C4.75635 13.9166 5.54297 15 6.5127 15C7.48242 15 8.26904 13.9166 8.26904 12.581C8.26758 11.2455 7.48242 10.1621 6.5127 10.1621ZM6.5127 11.651C6.14062 11.651 5.8374 12.0666 5.8374 12.581C5.8374 13.0935 6.13916 13.5111 6.5127 13.5111C6.88477 13.5111 7.18799 13.0955 7.18799 12.581C7.18652 12.0666 6.88477 11.651 6.5127 11.651ZM14.9502 10.1621C13.9805 10.1621 13.1938 11.2455 13.1938 12.581C13.1938 13.9166 13.9805 15 14.9502 15C15.9199 15 16.7065 13.9166 16.7065 12.581C16.7065 11.2455 15.9199 10.1621 14.9502 10.1621ZM14.9502 11.651C14.5781 11.651 14.2749 12.0666 14.2749 12.581C14.2749 13.0935 14.5767 13.5111 14.9502 13.5111C15.3237 13.5111 15.6255 13.0955 15.6255 12.581C15.6255 12.0666 15.3237 11.651 14.9502 11.651ZM13.1528 4.80363L11.8447 4.78346V7.10155H14.0376L13.1528 4.80363Z" fill="#FF9700"/>
</svg>
