<svg width="20" height="20" viewBox="0 0 20 20" fill="none" xmlns="http://www.w3.org/2000/svg">
<path id="Vector" d="M6.96126 16.906H13.0387C13.0615 16.906 13.0827 16.9159 13.099 16.9306C13.1136 16.9454 13.1234 16.9667 13.1234 16.9913V17.8455C13.1234 17.8685 13.1136 17.8898 13.099 17.9062C13.0843 17.921 13.0615 17.9308 13.0387 17.9308H6.96126C6.93848 17.9308 6.91732 17.921 6.90104 17.9062C6.88639 17.8915 6.87663 17.8685 6.87663 17.8455V16.9913C6.87663 16.9684 6.88639 16.947 6.90104 16.9306C6.91569 16.9159 6.93685 16.906 6.96126 16.906ZM10.057 2.12002C10.6071 2.12002 11.1328 2.22987 11.613 2.42991C12.111 2.63814 12.5602 2.94311 12.9346 3.32022C13.3089 3.69733 13.6117 4.14986 13.8184 4.65158C14.0169 5.13527 14.126 5.66486 14.126 6.21905C14.126 6.77488 14.0169 7.30284 13.8184 7.78652C13.6117 8.28824 13.3089 8.74078 12.9346 9.11789C12.5602 9.495 12.111 9.79997 11.613 10.0082C11.1328 10.2082 10.6071 10.3181 10.057 10.3181C9.50684 10.3181 8.98112 10.2082 8.50098 10.0082C8.00293 9.79997 7.55371 9.495 7.17936 9.11789C6.80501 8.74078 6.50228 8.28824 6.29557 7.78652C6.09701 7.30284 5.98796 6.77324 5.98796 6.21905C5.98796 5.66486 6.09701 5.13527 6.29557 4.65158C6.50228 4.14986 6.80501 3.69733 7.17936 3.32022C7.55371 2.94311 8.00293 2.63814 8.50098 2.42991C8.98112 2.22987 9.50684 2.12002 10.057 2.12002ZM2.38281 1.24447H6.20931C6.44857 1.05755 6.70898 0.887031 6.98731 0.736186C7.27051 0.583702 7.57161 0.452533 7.88737 0.345958C8.21777 0.232825 8.56608 0.145926 8.92578 0.0868995C9.27734 0.029513 9.6403 0 10.0098 0C10.3792 0 10.7422 0.029513 11.0938 0.0868995C11.4535 0.145926 11.8018 0.232825 12.1322 0.345958C12.4479 0.454173 12.749 0.585342 13.0322 0.736186C13.3122 0.887031 13.5726 1.05591 13.8102 1.24447H17.6156C17.9362 1.24447 18.2438 1.31005 18.5254 1.42646C18.8167 1.54779 19.0804 1.72815 19.3001 1.9495C19.5199 2.17085 19.6973 2.43483 19.8193 2.72996C19.9365 3.01197 20 3.32186 20 3.6465V17.598C20 17.921 19.9349 18.2309 19.8193 18.5145C19.6989 18.808 19.5199 19.0736 19.3001 19.295C19.0804 19.5163 18.8184 19.695 18.5254 19.818C18.2454 19.9361 17.9378 20 17.6156 20H2.38281C2.06217 20 1.75456 19.9344 1.47298 19.818C1.18164 19.6967 0.917969 19.5163 0.698242 19.295C0.478516 19.0736 0.301107 18.8096 0.179036 18.5145C0.0651042 18.2292 0 17.9193 0 17.5963V3.64486C0 3.32186 0.0651042 3.01197 0.180664 2.72832C0.301107 2.43483 0.480143 2.16921 0.69987 1.94786C0.919596 1.72651 1.18164 1.54779 1.47461 1.42482C1.75456 1.30841 2.06217 1.24447 2.38281 1.24447ZM2.70345 16.747C2.88737 16.747 3.05501 16.8224 3.17546 16.9438C3.2959 17.0651 3.37077 17.234 3.37077 17.4192C3.37077 17.6045 3.2959 17.7734 3.17546 17.8947C3.05501 18.0161 2.88737 18.0915 2.70345 18.0915C2.51953 18.0915 2.35352 18.0161 2.23145 17.8947C2.111 17.7734 2.03613 17.6045 2.03613 17.4192C2.03613 17.234 2.111 17.0651 2.23145 16.9438L2.2347 16.9405C2.35677 16.8208 2.52116 16.747 2.70345 16.747ZM2.70345 3.44319C2.88737 3.44319 3.05501 3.51861 3.17546 3.63994C3.2959 3.76127 3.37077 3.93015 3.37077 4.11543C3.37077 4.3007 3.2959 4.46795 3.17546 4.59092C3.05501 4.71225 2.88737 4.78767 2.70345 4.78767C2.51953 4.78767 2.35352 4.71225 2.23145 4.59092C2.111 4.46959 2.03613 4.3007 2.03613 4.11543C2.03613 3.93015 2.111 3.76127 2.23145 3.63994L2.2347 3.63666C2.35677 3.51697 2.52116 3.44319 2.70345 3.44319ZM17.2965 3.44319C17.4805 3.44319 17.6465 3.51861 17.7686 3.63994C17.889 3.76127 17.9639 3.93015 17.9639 4.11543C17.9639 4.3007 17.889 4.46795 17.7686 4.59092C17.6481 4.71225 17.4805 4.78767 17.2965 4.78767C17.1126 4.78767 16.945 4.71225 16.8245 4.59092L16.8213 4.58764C16.7025 4.46631 16.6292 4.29907 16.6292 4.11707C16.6292 3.93179 16.7041 3.76291 16.8245 3.64158C16.945 3.51861 17.1126 3.44319 17.2965 3.44319ZM17.2965 16.747C17.4805 16.747 17.6465 16.8224 17.7686 16.9438C17.889 17.0651 17.9639 17.234 17.9639 17.4192C17.9639 17.6045 17.889 17.7734 17.7686 17.8947L17.7653 17.898C17.6449 18.0177 17.4788 18.0915 17.2982 18.0915C17.1143 18.0915 16.9466 18.0161 16.8262 17.8947C16.7057 17.7734 16.6309 17.6045 16.6309 17.4192C16.6309 17.234 16.7057 17.0651 16.8262 16.9438C16.945 16.8224 17.1126 16.747 17.2965 16.747ZM6.14095 2.09379H2.38281C2.17448 2.09379 1.97754 2.13642 1.79525 2.21184C1.60645 2.29054 1.43717 2.40695 1.29395 2.5496C1.15072 2.69388 1.03678 2.8644 0.958659 3.0546C0.883789 3.2366 0.841471 3.43663 0.841471 3.6465V17.598C0.841471 17.8078 0.883789 18.0079 0.958659 18.1899C1.03678 18.3801 1.15234 18.5506 1.29395 18.6949C1.43717 18.8392 1.60645 18.9539 1.79525 19.0326C1.97591 19.1081 2.17448 19.1507 2.38281 19.1507H17.6156C17.8239 19.1507 18.0208 19.1081 18.2031 19.0326C18.3919 18.9539 18.5612 18.8375 18.7044 18.6949C18.8477 18.5506 18.9616 18.3801 19.0397 18.1899C19.1146 18.0079 19.1569 17.8078 19.1569 17.598V3.64486C19.1569 3.43499 19.1146 3.23496 19.0397 3.05296C18.9616 2.86276 18.846 2.69224 18.7044 2.54796C18.5612 2.40367 18.3919 2.2889 18.2031 2.2102C18.0225 2.13478 17.8239 2.09215 17.6156 2.09215H13.6654C13.6605 2.09215 13.654 2.09215 13.6491 2.09051C13.6068 2.08887 13.5628 2.08067 13.5221 2.06591L13.5189 2.06427C13.4749 2.04788 13.4342 2.02492 13.3968 1.99213C13.1836 1.81341 12.946 1.65109 12.6872 1.50844C12.4316 1.36744 12.1566 1.24611 11.8652 1.14609C11.5788 1.04771 11.276 0.972291 10.9603 0.921463C10.6543 0.872274 10.3369 0.84604 10.0081 0.84604C9.68099 0.84604 9.36198 0.872274 9.05599 0.921463C8.74349 0.97557 8.44075 1.05099 8.1543 1.14773C7.86784 1.24447 7.59766 1.36416 7.34701 1.50189C7.09473 1.63961 6.86035 1.79866 6.64714 1.97245C6.6097 2.01017 6.56413 2.03968 6.51367 2.05935C6.46322 2.08067 6.40951 2.09051 6.35417 2.09051H6.14095V2.09379ZM13.0208 6.42236C12.9541 6.42236 12.8923 6.39449 12.8483 6.35022C12.8044 6.30595 12.7767 6.24365 12.7767 6.17642C12.7767 6.10756 12.8044 6.04689 12.8483 6.00262C12.8923 5.95835 12.9541 5.93048 13.0208 5.93048H13.5124C13.4814 5.54845 13.3887 5.18282 13.2438 4.84506C13.0957 4.49582 12.8923 4.17609 12.6449 3.89736L12.3454 4.19905L12.3421 4.20233C12.2949 4.24824 12.2331 4.27119 12.1729 4.27119C12.111 4.27119 12.0475 4.2466 12.0003 4.19905C11.9531 4.1515 11.9287 4.08756 11.9287 4.02525C11.9287 3.96131 11.9531 3.899 12.0003 3.85145L12.2949 3.55468C12.015 3.3153 11.696 3.12182 11.3493 2.98082C11.014 2.84473 10.651 2.76111 10.2734 2.73651V3.26611C10.2734 3.33497 10.2458 3.39564 10.2018 3.43991C10.1579 3.48418 10.096 3.51205 10.0293 3.51205C9.96094 3.51205 9.90072 3.48418 9.85677 3.43991C9.81283 3.39564 9.78516 3.33333 9.78516 3.26611V2.73815C9.40918 2.76767 9.05111 2.85785 8.71908 2.99885C8.37565 3.14478 8.06152 3.34317 7.78483 3.58583L8.12663 3.93015C8.17383 3.9777 8.19824 4.04165 8.19824 4.10395C8.19824 4.1679 8.17383 4.2302 8.12663 4.27775C8.07943 4.3253 8.01595 4.34989 7.9541 4.34989C7.89225 4.34989 7.82878 4.3253 7.78158 4.27775L7.43978 3.93343C7.19889 4.21381 7.00195 4.53189 6.85872 4.87949C6.72038 5.21561 6.63086 5.57796 6.60319 5.95835H7.14681C7.21517 5.95835 7.27539 5.98623 7.31934 6.0305C7.36328 6.07477 7.39095 6.13707 7.39095 6.2043C7.39095 6.27152 7.36328 6.33383 7.31934 6.3781C7.27539 6.42236 7.21354 6.45024 7.14681 6.45024H6.60156C6.62598 6.83391 6.71224 7.20118 6.85059 7.54058C6.99219 7.89146 7.19076 8.21282 7.43164 8.49484L7.76855 8.15544C7.81576 8.10789 7.87923 8.08329 7.94108 8.08329C8.00456 8.08329 8.06641 8.10789 8.11361 8.15544C8.16081 8.20298 8.18522 8.26693 8.18522 8.32923C8.18522 8.39318 8.16081 8.45548 8.11361 8.50303L7.77507 8.84407C8.05501 9.09165 8.37728 9.29497 8.72559 9.44253C9.06413 9.58518 9.43034 9.67536 9.81445 9.70159V9.28021C9.81445 9.21299 9.84212 9.15068 9.88607 9.10641C9.93001 9.06214 9.99186 9.03427 10.0586 9.03427C10.1253 9.03427 10.1872 9.06214 10.2311 9.10641C10.2751 9.15068 10.3027 9.21299 10.3027 9.28021V9.70487C10.6868 9.677 11.0547 9.58682 11.3949 9.44417C11.7464 9.29661 12.0671 9.09165 12.3486 8.84243L12.028 8.51943C11.9808 8.47188 11.9564 8.40794 11.9564 8.34563C11.9564 8.28169 11.9808 8.21938 12.028 8.17183C12.0752 8.12428 12.1387 8.09969 12.2005 8.09969C12.264 8.09969 12.3258 8.12428 12.373 8.17183L12.6904 8.49156C12.9329 8.20626 13.1315 7.87998 13.2731 7.52582C13.4098 7.18151 13.4945 6.81095 13.5173 6.424H13.0208V6.42236ZM10.3434 6.64207C10.2751 6.71749 10.1855 6.75848 10.0928 6.76504C9.99837 6.7716 9.90234 6.74209 9.82422 6.67323L9.81934 6.66995C9.74447 6.60272 9.70378 6.5109 9.69889 6.41909C9.69238 6.32399 9.72168 6.22725 9.79004 6.14855L11.0693 4.67454C11.1361 4.59748 11.2288 4.55484 11.3232 4.54829C11.4176 4.54173 11.5137 4.57124 11.5918 4.6401C11.6683 4.70733 11.7106 4.80079 11.7171 4.89588C11.7236 4.99098 11.6943 5.08772 11.626 5.16642C11.1979 5.65667 10.7666 6.14691 10.3434 6.64207Z" fill="#FF9700"/>
</svg>
